<svg width="319" height="302" viewBox="0 0 319 302" fill="none" xmlns="http://www.w3.org/2000/svg">
<g clip-path="url(#clip0_6_805)">
<path d="M309.572 175.524C299.462 202.586 278.817 231.879 249.764 240.554C205.839 253.663 200.623 289.044 121.996 285.763C110.511 285.34 99.1054 283.67 87.9813 280.78C82.551 279.345 77.2167 277.568 72.0103 275.461C26.0738 256.854 2.11382 215.908 0.130309 173.067C-2.49149 116.712 36.8218 89.8552 62.3741 74.1313C87.9264 58.4073 118.722 -2.50503 196.038 0.0824616C207.845 0.436705 219.572 2.15012 230.986 5.1888C257.005 12.2306 283.45 27.8036 298.824 50.5693C299.977 52.2852 301.079 54.033 302.132 55.8129C322.708 90.7131 323.347 138.626 309.572 175.524Z" fill="#F78914"/>
<path opacity="0.8" d="M309.572 175.524C299.462 202.586 278.817 231.879 249.764 240.554C205.839 253.663 200.623 289.044 121.996 285.763C110.511 285.34 99.1054 283.67 87.9813 280.78C82.551 279.345 77.2167 277.568 72.0103 275.461C26.0738 256.854 2.11382 215.908 0.130309 173.067C-2.49149 116.712 36.8218 89.8552 62.3741 74.1313C87.9264 58.4073 118.722 -2.50503 196.038 0.0824616C207.845 0.436705 219.572 2.15012 230.986 5.1888C257.005 12.2306 283.45 27.8036 298.824 50.5693C299.977 52.2852 301.079 54.033 302.132 55.8129C322.708 90.7131 323.347 138.626 309.572 175.524Z" fill="white"/>
<path d="M9.63623 301.473H317.307" stroke="#263238" stroke-linecap="round" stroke-linejoin="round"/>
<path d="M128.571 14.667H21.7981V159.882H128.571V14.667Z" stroke="#263238" stroke-opacity="0.5" stroke-linecap="round" stroke-linejoin="round"/>
<path d="M125.607 18.7026H24.7632V155.853H125.607V18.7026Z" stroke="#263238" stroke-opacity="0.5" stroke-linecap="round" stroke-linejoin="round"/>
<path d="M24.7905 25.8474H125.497" stroke="#263238" stroke-opacity="0.5" stroke-linecap="round" stroke-linejoin="round"/>
<path d="M24.7905 33.5413H125.497" stroke="#263238" stroke-opacity="0.5" stroke-linecap="round" stroke-linejoin="round"/>
<path d="M24.7905 41.2351H125.497" stroke="#263238" stroke-opacity="0.5" stroke-linecap="round" stroke-linejoin="round"/>
<path d="M24.7905 48.9221H125.497" stroke="#263238" stroke-opacity="0.5" stroke-linecap="round" stroke-linejoin="round"/>
<path d="M24.7905 56.616H125.497" stroke="#263238" stroke-opacity="0.5" stroke-linecap="round" stroke-linejoin="round"/>
<path d="M24.7905 64.3096H125.497" stroke="#263238" stroke-opacity="0.5" stroke-linecap="round" stroke-linejoin="round"/>
<path d="M24.7905 72.0034H125.497" stroke="#263238" stroke-opacity="0.5" stroke-linecap="round" stroke-linejoin="round"/>
<path d="M24.7905 79.6973H125.497" stroke="#263238" stroke-opacity="0.5" stroke-linecap="round" stroke-linejoin="round"/>
<path d="M24.7905 87.3843H125.497" stroke="#263238" stroke-opacity="0.5" stroke-linecap="round" stroke-linejoin="round"/>
<path d="M24.7905 95.0781H125.497" stroke="#263238" stroke-opacity="0.5" stroke-linecap="round" stroke-linejoin="round"/>
<path d="M24.7905 102.772H125.497" stroke="#263238" stroke-opacity="0.5" stroke-linecap="round" stroke-linejoin="round"/>
<path d="M24.7905 110.466H125.497" stroke="#263238" stroke-opacity="0.5" stroke-linecap="round" stroke-linejoin="round"/>
<path d="M24.7905 118.16H125.497" stroke="#263238" stroke-opacity="0.5" stroke-linecap="round" stroke-linejoin="round"/>
<path d="M24.7905 125.847H125.497" stroke="#263238" stroke-opacity="0.5" stroke-linecap="round" stroke-linejoin="round"/>
<path d="M24.7905 133.54H125.497" stroke="#263238" stroke-opacity="0.5" stroke-linecap="round" stroke-linejoin="round"/>
<path d="M24.7905 141.234H125.497" stroke="#263238" stroke-opacity="0.5" stroke-linecap="round" stroke-linejoin="round"/>
<path d="M24.7905 148.928H125.497" stroke="#263238" stroke-opacity="0.5" stroke-linecap="round" stroke-linejoin="round"/>
<path d="M160.04 237.761H90.0198V301.343H160.04V237.761Z" fill="#F78914"/>
<path opacity="0.3" d="M160.04 237.761H90.0198V301.343H160.04V237.761Z" fill="black" stroke="#263238" stroke-linecap="round" stroke-linejoin="round"/>
<path d="M160.04 237.761H90.0198V301.343H160.04V237.761Z" stroke="#263238" stroke-linecap="round" stroke-linejoin="round"/>
<path d="M139.923 237.761H90.0198V301.343H139.923V237.761Z" fill="#F78914" stroke="#263238" stroke-linecap="round" stroke-linejoin="round"/>
<path d="M120.026 237.761H109.306V255.509H120.026V237.761Z" fill="white" stroke="#263238" stroke-linecap="round" stroke-linejoin="round"/>
<path d="M135.201 260.698H122.772V267.04H135.201V260.698Z" fill="white"/>
<path d="M110.615 271.343L97.8103 268.174L95.9208 275.809L108.726 278.978L110.615 271.343Z" fill="white"/>
<path d="M215.111 237.761H145.091V301.343H215.111V237.761Z" fill="#F78914"/>
<path opacity="0.3" d="M215.111 237.761H145.091V301.343H215.111V237.761Z" fill="black" stroke="#263238" stroke-linecap="round" stroke-linejoin="round"/>
<path d="M215.111 237.761H145.091V301.343H215.111V237.761Z" stroke="#263238" stroke-linecap="round" stroke-linejoin="round"/>
<path d="M194.995 237.761H145.091V301.343H194.995V237.761Z" fill="#F78914" stroke="#263238" stroke-linecap="round" stroke-linejoin="round"/>
<path d="M175.098 237.761H164.377V255.509H175.098V237.761Z" fill="white" stroke="#263238" stroke-linecap="round" stroke-linejoin="round"/>
<path d="M185.194 285.948H172.764V292.29H185.194V285.948Z" fill="white"/>
<path d="M165.681 271.345L152.875 268.176L150.986 275.811L163.791 278.98L165.681 271.345Z" fill="white"/>
<path d="M270.581 237.761H200.561V301.343H270.581V237.761Z" fill="#F78914"/>
<path opacity="0.3" d="M270.581 237.761H200.561V301.343H270.581V237.761Z" fill="black" stroke="#263238" stroke-linecap="round" stroke-linejoin="round"/>
<path d="M270.581 237.761H200.561V301.343H270.581V237.761Z" stroke="#263238" stroke-linecap="round" stroke-linejoin="round"/>
<path d="M250.465 237.761H200.561V301.343H250.465V237.761Z" fill="#F78914" stroke="#263238" stroke-linecap="round" stroke-linejoin="round"/>
<path d="M230.561 237.761H219.84V255.509H230.561V237.761Z" fill="white" stroke="#263238" stroke-linecap="round" stroke-linejoin="round"/>
<path d="M246.223 265.885L237.253 257.281L232.863 261.857L241.833 270.462L246.223 265.885Z" fill="white"/>
<path d="M221.146 271.349L208.341 268.18L206.451 275.815L219.256 278.984L221.146 271.349Z" fill="white"/>
<path d="M188.639 174.48H118.619V238.063H188.639V174.48Z" fill="#F78914"/>
<path opacity="0.3" d="M188.639 174.48H118.619V238.063H188.639V174.48Z" fill="black" stroke="#263238" stroke-linecap="round" stroke-linejoin="round"/>
<path d="M188.639 174.48H118.619V238.063H188.639V174.48Z" stroke="#263238" stroke-linecap="round" stroke-linejoin="round"/>
<path d="M168.523 174.48H118.619V238.063H168.523V174.48Z" fill="#F78914" stroke="#263238" stroke-linecap="round" stroke-linejoin="round"/>
<path d="M148.626 174.48H137.906V192.229H148.626V174.48Z" fill="white" stroke="#263238" stroke-linecap="round" stroke-linejoin="round"/>
<path d="M163.801 197.411H151.371V203.753H163.801V197.411Z" fill="white"/>
<path d="M162.276 218.133L149.471 214.964L147.582 222.599L160.387 225.768L162.276 218.133Z" fill="white"/>
<path d="M243.711 174.48H173.691V238.063H243.711V174.48Z" fill="#F78914"/>
<path opacity="0.3" d="M243.711 174.48H173.691V238.063H243.711V174.48Z" fill="black" stroke="#263238" stroke-linecap="round" stroke-linejoin="round"/>
<path d="M243.711 174.48H173.691V238.063H243.711V174.48Z" stroke="#263238" stroke-linecap="round" stroke-linejoin="round"/>
<path d="M223.594 174.48H173.691V238.063H223.594V174.48Z" fill="#F78914" stroke="#263238" stroke-linecap="round" stroke-linejoin="round"/>
<path d="M203.698 174.48H192.977V192.229H203.698V174.48Z" fill="white" stroke="#263238" stroke-linecap="round" stroke-linejoin="round"/>
<path d="M209.532 198.331H197.102V204.672H209.532V198.331Z" fill="white"/>
<path d="M194.281 208.058L181.476 204.889L179.586 212.524L192.391 215.693L194.281 208.058Z" fill="white"/>
<path d="M57.1787 176.464C57.1787 176.464 60.5211 211.117 60.727 215.914C60.933 220.712 58.668 223.217 58.668 232.386C58.668 241.556 60.9673 284.987 60.9673 284.987C60.9673 284.987 58.9083 297.094 58.0435 298.762C57.8837 299.045 57.8027 299.365 57.8088 299.69C57.8149 300.015 57.9079 300.332 58.0782 300.609C58.2484 300.886 58.4897 301.112 58.7769 301.264C59.0641 301.416 59.3867 301.488 59.7113 301.473H71.1662C71.1662 301.473 72.6281 299.181 72.2094 297.094C71.7908 295.008 70.1504 283.944 70.1504 283.944C70.1504 283.944 82.0446 224.233 82.6692 220.492C83.2938 216.752 88.5168 181.673 88.5168 181.673L87.8922 215.695C87.8922 215.695 86.4303 230.513 88.0981 241.158C89.7659 251.803 94.5703 285.612 94.5703 285.612L94.7762 301.473H121.701C121.701 301.473 122.538 299.599 121.077 298.556C119.615 297.513 115.229 295.42 113.143 293.333C111.056 291.247 105.215 284.569 105.215 284.569C105.215 284.569 107.72 245.749 108.551 235.104C109.381 224.459 110.61 217.363 111.475 211.515C112.34 205.667 114.399 180.63 114.399 175.201C114.399 169.772 91.2278 166.642 91.2278 166.642L57.0002 170.191L57.1787 176.464Z" fill="#263238" stroke="#263238" stroke-linecap="round" stroke-linejoin="round"/>
<path d="M72.1957 297.108C71.8113 295.186 70.3632 285.674 70.1367 284.164H60.8917C60.8917 284.706 60.9398 285.001 60.9398 285.001C60.9398 285.001 58.8808 297.108 58.016 298.776C57.8563 299.059 57.7752 299.379 57.7813 299.704C57.7874 300.029 57.8804 300.346 58.0507 300.623C58.2209 300.9 58.4622 301.126 58.7494 301.278C59.0366 301.429 59.3592 301.502 59.6838 301.487H71.1593C71.6603 300.658 72.0111 299.747 72.1957 298.796C72.3012 298.238 72.3012 297.666 72.1957 297.108ZM121.303 298.796C121.226 298.717 121.141 298.645 121.049 298.583C119.587 297.547 115.208 295.454 113.115 293.374C111.022 291.295 105.188 284.603 105.188 284.603V284.562L94.3644 284.383C94.4742 285.172 94.5428 285.612 94.5428 285.612L94.7144 298.762L94.7487 301.473H121.674C121.674 301.473 122.408 299.839 121.303 298.796Z" fill="white" stroke="#263238" stroke-linecap="round" stroke-linejoin="round"/>
<path d="M58.016 298.796H72.1957C72.0113 299.755 71.6581 300.673 71.1525 301.507H59.6838C59.3592 301.522 59.0366 301.45 58.7494 301.298C58.4622 301.146 58.2209 300.92 58.0507 300.644C57.8804 300.367 57.7874 300.05 57.7813 299.725C57.7752 299.4 57.8563 299.079 58.016 298.796Z" fill="white" stroke="#263238" stroke-linecap="round" stroke-linejoin="round"/>
<path d="M121.674 301.487H94.7487L94.7144 298.776H121.303C122.408 299.839 121.674 301.487 121.674 301.487Z" fill="white" stroke="#263238" stroke-linecap="round" stroke-linejoin="round"/>
<path d="M112.779 110.315L118.997 119.031L133.458 125.153L129.471 135.071C129.471 135.071 116.766 134.611 114.824 133.774C113.677 133.292 112.612 132.635 111.667 131.824L111.763 109.944L112.779 110.315Z" fill="#263238" stroke="#263238" stroke-linecap="round" stroke-linejoin="round"/>
<path d="M174.152 123.064L137.427 109.055L117.87 160.324L154.595 174.333L174.152 123.064Z" fill="#F78914" stroke="#263238" stroke-linecap="round" stroke-linejoin="round"/>
<path d="M174.151 123.071L165.346 119.713L145.789 170.982L154.594 174.34L174.151 123.071Z" fill="#F78914"/>
<path opacity="0.3" d="M174.151 123.071L165.346 119.713L145.789 170.982L154.594 174.34L174.151 123.071Z" fill="black" stroke="#263238" stroke-linecap="round" stroke-linejoin="round"/>
<path d="M174.151 123.071L165.346 119.713L145.789 170.982L154.594 174.34L174.151 123.071Z" stroke="#263238" stroke-linecap="round" stroke-linejoin="round"/>
<path d="M144.68 111.523C144.68 111.523 147.734 110.226 148.111 110.5C148.489 110.775 148.757 113.191 148.757 113.191L144.68 111.523Z" fill="white" stroke="#263238" stroke-linecap="round" stroke-linejoin="round"/>
<path d="M148.111 110.5C148.111 110.5 150.795 110.781 151.351 111.708C151.907 112.635 151.351 114.398 151.351 114.398L148.756 113.19L148.111 110.5Z" fill="white" stroke="#263238" stroke-linecap="round" stroke-linejoin="round"/>
<path d="M151.351 111.708C151.351 111.708 153.3 111.797 153.581 112.545C153.774 113.396 153.867 114.267 153.856 115.14L151.351 114.398C151.351 114.398 152.003 112.635 151.351 111.708Z" fill="white" stroke="#263238" stroke-linecap="round" stroke-linejoin="round"/>
<path d="M153.582 112.545C153.582 112.545 155.894 112.264 156.176 113.746C156.344 114.571 156.374 115.417 156.265 116.251L153.87 115.14C153.87 115.14 154.137 112.916 153.582 112.545Z" fill="white" stroke="#263238" stroke-linecap="round" stroke-linejoin="round"/>
<path d="M117.542 177.548C114.676 178.272 111.711 178.523 108.764 178.289C104.11 177.864 96.8145 173.313 96.8145 173.313C96.8145 173.313 82.8544 178.392 72.3878 179.978C65.9384 180.89 59.3624 180.051 53.3488 177.548L54.7215 161.172L55.6275 150.314L56.4717 140.328L56.5197 139.697C56.5197 139.697 55.4422 135.366 54.2068 129.553C52.5115 121.632 50.5349 110.925 50.5966 104.591C50.7064 93.6092 57.261 90.1776 57.261 90.1776L76.1901 82.0376C84.8517 81.715 87.5009 84.4672 92.2641 85.4212C97.0273 86.3753 111.296 92.9298 112.168 94.8309C112.758 96.1693 113.362 115.421 113.657 127.473C113.788 132.518 113.863 136.286 113.863 136.917C113.863 137.102 113.863 137.603 113.945 138.29C114.103 140.431 114.481 144.686 114.941 149.628C115.249 153.06 115.627 156.841 115.943 160.465C116.766 169.477 117.542 177.548 117.542 177.548Z" fill="#F78914" stroke="#263238" stroke-linecap="round" stroke-linejoin="round"/>
<path d="M56.5266 139.697C56.5266 139.697 55.449 135.366 54.2136 129.553L113.637 127.494C113.767 132.538 113.842 136.306 113.842 136.938C113.842 137.123 113.843 137.624 113.925 138.31L56.4785 140.301L56.5266 139.697Z" fill="white" stroke="#263238" stroke-linecap="round" stroke-linejoin="round"/>
<path d="M115.922 160.513L54.7285 161.2L55.6345 150.342L114.92 149.704C115.229 153.115 115.586 156.89 115.922 160.513Z" fill="white" stroke="#263238" stroke-linecap="round" stroke-linejoin="round"/>
<path d="M96.0046 128.249C96.0046 128.249 97.6724 156.011 96.2105 171.453" stroke="#263238" stroke-linecap="round" stroke-linejoin="round"/>
<path d="M102.95 75.085C102.95 75.085 104.11 85.1261 104.323 86.0663C104.536 87.0066 102.312 87.439 98.503 87.0203L94.7007 86.5948C94.7007 86.5948 96.9176 82.6827 97.5558 81.6257C98.1941 80.5688 102.95 75.085 102.95 75.085Z" fill="#263238" stroke="#263238" stroke-linecap="round" stroke-linejoin="round"/>
<path d="M93.6438 86.6085C93.5936 87.7773 93.6649 88.948 93.8566 90.102C94.1723 92.3189 95.6479 110.932 95.442 113.362C95.2361 115.792 95.1195 116.643 95.1195 116.643C95.1195 116.643 88.7777 101.413 84.3371 94.7485C79.8965 88.0842 77.7826 84.9202 77.5699 84.3917C77.3571 83.8632 76.8286 68.606 76.8286 68.606C76.8286 68.606 79.574 69.56 80.8437 71.6739C82.1134 73.7878 86.0255 78.2284 88.7777 81.2826C91.5299 84.3368 93.6438 86.6085 93.6438 86.6085Z" fill="white" stroke="#263238" stroke-linecap="round" stroke-linejoin="round"/>
<path d="M85.7509 81.475L92.3123 92.271L93.987 91.269L94.7008 86.6088L84.1106 77.8442L85.7509 81.475Z" fill="#263238" stroke="#263238" stroke-linecap="round" stroke-linejoin="round"/>
<path d="M90.3631 93.3758C87.2197 94.0073 79.6631 85.7232 77.4531 83.2043C77.4626 83.6025 77.5016 83.9993 77.5698 84.3917C77.7826 84.9202 79.8965 88.0911 84.3371 94.7485C88.7777 101.406 95.1194 116.643 95.1194 116.643C95.1194 116.643 95.2292 115.792 95.442 113.362C95.6273 111.179 94.4537 95.9702 93.987 91.2688C93.0507 92.3591 91.7738 93.1015 90.3631 93.3758Z" fill="#263238" stroke="#263238" stroke-linecap="round" stroke-linejoin="round"/>
<path d="M105.38 61.9692C105.38 61.9692 104.11 69.3748 104.11 71.173C104.11 72.9712 104.213 75.5038 101.571 79.21C98.9285 82.9162 96.7048 86.7185 95.2292 87.247C94.1896 87.5351 93.0948 87.5605 92.043 87.3209C90.9912 87.0813 90.0154 86.5843 89.2032 85.8743C87.1922 84.1859 82.1133 76.4647 81.4819 75.7234C81.0084 75.1059 80.6163 74.43 80.3151 73.7125L78.8395 72.0241C78.8395 72.0241 75.8745 71.0701 76.0941 67.3707C76.1087 66.3541 76.3776 65.3573 76.8763 64.4714C77.375 63.5854 78.0877 62.8384 78.9493 62.2987L83.6027 58.1807C90.4613 61.1437 97.9237 62.4419 105.38 61.9692Z" fill="white" stroke="#263238" stroke-linecap="round" stroke-linejoin="round"/>
<path d="M100.624 66.5195C100.624 66.5195 99.3539 70.1159 99.3539 70.4316C99.3539 70.7474 100.514 76.6704 99.8824 77.096C99.251 77.5215 95.7644 76.5606 95.7644 76.5606" stroke="#263238" stroke-linecap="round" stroke-linejoin="round"/>
<path d="M90.4661 76.2449C90.4661 76.2449 93.0055 79.8413 97.2402 79.1" stroke="#263238" stroke-linecap="round" stroke-linejoin="round"/>
<path d="M92.9162 70.0062C93.4507 70.0062 93.8839 69.3056 93.8839 68.4413C93.8839 67.5771 93.4507 66.8765 92.9162 66.8765C92.3818 66.8765 91.9485 67.5771 91.9485 68.4413C91.9485 69.3056 92.3818 70.0062 92.9162 70.0062Z" fill="#263238"/>
<path d="M102.326 70.617C102.86 70.617 103.294 69.9164 103.294 69.0522C103.294 68.1879 102.86 67.4873 102.326 67.4873C101.791 67.4873 101.358 68.1879 101.358 69.0522C101.358 69.9164 101.791 70.617 102.326 70.617Z" fill="#263238"/>
<path d="M91.3171 65.7785C91.9382 65.2941 92.6562 64.949 93.4224 64.7667C94.1886 64.5843 94.9851 64.5689 95.7577 64.7215" stroke="#263238" stroke-linecap="round" stroke-linejoin="round"/>
<path d="M101.708 65.2498C102.17 65.0739 102.671 65.0302 103.156 65.1236C103.641 65.2169 104.09 65.4436 104.454 65.7782" stroke="#263238" stroke-linecap="round" stroke-linejoin="round"/>
<path d="M84.9685 60.6994C84.9685 60.6994 85.394 63.3487 84.44 64.6184C83.661 65.5627 82.7741 66.4126 81.7976 67.151C81.7976 67.151 79.9994 63.9801 78.3111 65.3528C76.6227 66.7254 77.0413 68.7364 77.46 69.7933C77.8212 70.5899 78.2825 71.3372 78.8327 72.0171L78.517 84.9202C76.0005 84.7736 73.4939 84.4895 71.0084 84.0691C68.6528 83.5231 66.4706 82.3979 64.6598 80.7953C64.5825 77.5665 65.1956 74.3584 66.458 71.3857C67.8234 68.1693 69.487 65.0879 71.4271 62.1819L72.6968 57.1099L84.9685 60.6994Z" fill="#263238" stroke="#263238" stroke-linecap="round" stroke-linejoin="round"/>
<path d="M69.1758 57.4119C69.1758 57.4119 87.6108 62.6487 89.4158 63.5889C91.2209 64.5292 107.309 64.1311 109.656 62.9026C112.003 61.6741 108.208 58.565 108.208 58.565C108.208 58.565 105.874 55.8608 105.696 54.9548C105.517 54.0489 106.073 44.852 102.099 40.1506C98.1254 35.4492 87.4323 34.7903 82.7515 35.71C76.8284 36.8699 72.0721 41.3997 71.5299 43.3832C70.9877 45.3667 70.823 53.438 70.624 53.9802C70.4249 54.5224 69.1758 57.4119 69.1758 57.4119Z" fill="white" stroke="#263238" stroke-linecap="round" stroke-linejoin="round"/>
<path d="M114.893 113.575C114.893 113.575 116.059 110.081 117.116 109.978C118.173 109.876 121.028 111.989 121.873 111.461C122.717 110.932 125.895 103.637 125.256 102.257C124.618 100.878 111.303 96.4439 109.505 96.7665C107.707 97.0891 104.426 111.996 104.426 111.996L114.893 113.575Z" fill="#F78914" stroke="#263238" stroke-linecap="round" stroke-linejoin="round"/>
<path d="M122.724 100.747L118.928 110.569C120.082 111.111 121.358 111.783 121.873 111.461C122.724 110.932 125.895 103.637 125.256 102.257C125.099 101.914 124.117 101.365 122.724 100.747Z" fill="#263238" stroke="#263238" stroke-linecap="round" stroke-linejoin="round"/>
<path d="M105.826 112.195L110.184 96.7803C109.957 96.749 109.726 96.749 109.498 96.7803C107.7 97.096 104.419 112.01 104.419 112.01L105.826 112.195Z" fill="#263238" stroke="#263238" stroke-linecap="round" stroke-linejoin="round"/>
<path d="M93.4309 119.388C93.4309 119.388 104.453 110.74 104.742 110.74C105.03 110.74 115.634 112.223 116.059 113.595C116.347 114.488 116.347 115.448 116.059 116.341C115.956 116.663 115.002 117.082 114.687 117.295C114.371 117.508 113.101 122.374 111.832 123.534C110.562 124.693 109.924 125.016 107.81 124.7C106.083 124.318 104.412 123.714 102.841 122.902L95.9772 125.435L93.4309 119.388Z" fill="white" stroke="#263238" stroke-linecap="round" stroke-linejoin="round"/>
<path d="M70.6927 124.886C70.6927 124.886 63.0812 95.9155 60.8643 93.2731C58.6475 90.6307 56.6296 89.8895 52.5048 95.1743C48.3799 100.459 50.5007 112.731 53.0332 125.098C55.5658 137.466 60.1231 144.556 61.4958 144.453C62.8684 144.35 96.7048 126.608 96.7048 126.608L93.9595 118.674L70.6927 124.886Z" fill="#263238" stroke="#263238" stroke-linecap="round" stroke-linejoin="round"/>
<path d="M69.8485 125.414C68.6714 125.656 67.5568 126.138 66.5743 126.83C65.5918 127.522 64.7625 128.409 64.1382 129.436" stroke="white" stroke-linecap="round" stroke-linejoin="round"/>
<path d="M64.7765 125.943C64.7765 125.943 63.8225 126.794 62.6558 130.596" stroke="white" stroke-linecap="round" stroke-linejoin="round"/>
<g clip-path="url(#clip1_6_805)">
<path opacity="0.963" fill-rule="evenodd" clip-rule="evenodd" d="M91.1498 37.7217C91.2396 37.7217 91.3294 37.7217 91.4193 37.7217C91.446 38.1381 91.419 38.5514 91.3384 38.9614C91.4794 38.8027 91.6501 38.6859 91.8505 38.611C92.4955 38.5163 93.1423 38.4265 93.7909 38.3415C94.9989 38.2301 96.1848 38.3379 97.3484 38.6649C97.4153 38.7451 97.3883 38.79 97.2675 38.7997C95.785 38.4523 94.3028 38.4433 92.8207 38.7727C92.6802 38.8772 92.5814 39.012 92.5243 39.177C92.2642 39.3386 91.9857 39.3836 91.6888 39.3118C91.8873 39.411 92.067 39.5367 92.2278 39.6891C92.2789 39.7151 92.3328 39.7241 92.3895 39.716C92.3895 39.7879 92.3895 39.8597 92.3895 39.9316C92.157 40.0432 91.9144 40.133 91.6618 40.2011C91.2519 40.1416 91.0094 39.908 90.9342 39.5004C90.7387 39.5424 90.559 39.6233 90.3952 39.743C90.5233 39.7705 90.6492 39.8064 90.7725 39.8508C91.0121 40.0376 91.2637 40.1993 91.5271 40.3359C91.1677 40.6714 90.7544 40.7522 90.2874 40.5784C90.1026 40.4245 90.0038 40.2269 89.9909 39.9855C89.7616 40.1406 89.537 40.3023 89.3172 40.4706C89.6608 40.5383 89.9842 40.6551 90.2874 40.821C90.3937 40.8477 90.5015 40.8567 90.6108 40.8479C90.6232 41.025 90.5513 41.1597 90.3952 41.2522C90.0228 41.5523 89.6096 41.6242 89.1555 41.4678C89.018 41.3388 88.9102 41.186 88.8321 41.0096C88.805 40.9546 88.7691 40.9456 88.7243 40.9827C88.5446 41.1623 88.3649 41.342 88.1852 41.5217C88.4723 41.4888 88.7598 41.5067 89.0477 41.5756C89.3404 41.6937 89.6009 41.8284 89.8292 41.9798C89.4206 42.5029 88.9085 42.6376 88.293 42.3841C88.0874 42.2504 87.9707 42.0617 87.9427 41.8181C87.7285 42.0474 87.5668 42.2989 87.4576 42.5727C87.6896 42.4696 87.9321 42.4426 88.1852 42.4919C88.5228 42.5895 88.8642 42.6703 89.2094 42.7344C88.871 43.4157 88.332 43.6763 87.5923 43.516C87.4042 43.3817 87.2335 43.229 87.0803 43.0579C86.9545 43.2914 86.8287 43.525 86.703 43.7586C86.667 43.8125 86.667 43.8664 86.703 43.9203C86.936 43.7638 87.1965 43.6919 87.4845 43.7047C87.8552 43.7423 88.2145 43.7782 88.5625 43.8125C88.3619 44.29 88.0205 44.6224 87.5384 44.8096C87.2722 44.8349 87.0207 44.781 86.7838 44.6479C86.6648 44.547 86.5659 44.4302 86.4874 44.2976C86.4063 44.5314 86.3255 44.765 86.2448 44.9983C86.2628 45.0342 86.2808 45.0701 86.2987 45.1061C86.3886 45.0432 86.4784 44.9803 86.5682 44.9174C87.055 44.8898 87.5401 44.8898 88.0235 44.9174C89.8346 42.7352 92.1523 41.8638 94.9767 42.3032C95.1413 42.1619 95.321 42.0451 95.5157 41.9529C95.818 41.9048 96.0785 41.9857 96.2973 42.1954C96.3314 42.3954 96.3943 42.584 96.486 42.7614C96.9839 42.9657 97.4331 43.2442 97.8335 43.5969C97.8065 43.6148 97.7796 43.6328 97.7526 43.6508C97.3033 43.42 96.8451 43.2044 96.3782 43.004C96.1032 43.3109 95.7618 43.4097 95.354 43.3004C95.1081 43.1409 95.0003 42.9163 95.0306 42.6266C91.3557 42.3594 88.8134 43.9225 87.4037 47.316C86.7407 49.561 87.0552 51.6452 88.3469 53.5685C88.3469 53.6044 88.3649 53.6224 88.4008 53.6224C88.4212 53.7172 88.4571 53.807 88.5086 53.8919C88.4907 53.9098 88.4727 53.9279 88.4547 53.9458C87.4027 52.8292 86.8008 51.4997 86.6491 49.9571C86.5209 48.5634 86.7635 47.2428 87.3767 45.9954C87.3677 45.9685 87.3588 45.9415 87.3498 45.9146C86.8105 46.0855 86.3973 45.9238 86.1101 45.4295C86.0447 45.7346 85.9818 46.0401 85.9214 46.3458C86.4754 46.545 86.6101 46.9044 86.3257 47.4238C86.1876 47.5539 86.0259 47.6437 85.8406 47.6933C85.872 49.2964 86.2762 50.7966 87.0533 52.194C87.0264 52.203 86.9994 52.212 86.9725 52.221C86.901 52.151 86.8291 52.0791 86.7569 52.0054C86.0346 50.6437 85.6393 49.1884 85.5711 47.6394C85.2104 47.4569 85.0846 47.1695 85.1938 46.777C85.3238 46.5751 85.4855 46.4134 85.6789 46.2919C85.776 45.9755 85.8209 45.6521 85.8136 45.3217C85.279 45.307 84.9196 45.0554 84.7356 44.5671C84.7356 44.2976 84.7356 44.0281 84.7356 43.7586C84.7799 43.6567 84.8248 43.5489 84.8703 43.4352C84.909 43.3839 84.9539 43.375 85.0051 43.4082C85.2807 43.6838 85.5592 43.9623 85.8406 44.2437C85.8988 44.3782 85.9707 44.504 86.0562 44.621C86.1168 44.4025 86.1977 44.1959 86.2987 44.0011C85.242 43.8751 84.8737 43.2912 85.1938 42.2493C85.2778 41.9423 85.3677 41.9243 85.4633 42.1954C85.8792 42.4496 86.2026 42.791 86.4335 43.2196C86.4514 43.3274 86.4694 43.4352 86.4874 43.543C86.6008 43.2891 86.7356 43.0465 86.8916 42.8153C86.2762 42.7748 85.9528 42.4514 85.9214 41.8451C85.9384 41.4889 86.0462 41.1655 86.2448 40.8749C86.2959 40.8488 86.3498 40.8399 86.4065 40.8479C86.4986 41.1127 86.6513 41.3463 86.8647 41.5486C86.987 41.8259 87.0769 42.1134 87.1342 42.411C87.285 42.1543 87.4557 41.9118 87.6462 41.6834C86.9605 41.4325 86.7359 40.9564 86.9725 40.255C87.1055 40.034 87.2582 39.8274 87.4306 39.6352C87.4755 39.5981 87.5114 39.6071 87.5384 39.6621C87.5756 39.7669 87.6025 39.8747 87.6193 39.9855C87.9154 40.3976 88.0322 40.8468 87.9696 41.333C88.1754 41.1003 88.391 40.8757 88.6164 40.6593C88.0491 40.3774 87.8784 39.9372 88.1044 39.3387C88.2927 39.0965 88.4993 38.8719 88.7243 38.6649C88.7753 38.6389 88.8292 38.6299 88.886 38.638C88.8771 38.7828 88.8861 38.9266 88.9129 39.0692C89.0071 39.2153 89.061 39.377 89.0746 39.5543C89.0992 39.7905 89.0992 40.0241 89.0746 40.255C89.3107 40.0746 89.5533 39.9039 89.8023 39.743C89.2507 39.1248 89.3226 38.5858 90.0179 38.1259C90.1173 38.0651 90.2251 38.0382 90.3413 38.0451C90.3324 38.3164 90.3504 38.5859 90.3952 38.8536C90.3766 39.0818 90.3047 39.2884 90.1796 39.4735C90.4203 39.389 90.6539 39.2722 90.8803 39.1231C90.6058 38.8473 90.5429 38.5239 90.6916 38.1529C90.8387 37.9966 90.9914 37.8529 91.1498 37.7217Z" fill="#6CBB40"/>
<path opacity="0.989" fill-rule="evenodd" clip-rule="evenodd" d="M92.6589 54.4847C92.666 54.4375 92.648 54.4015 92.605 54.3769C91.3232 54.0016 90.3081 53.265 89.5596 52.167C89.5057 52.1131 89.4518 52.0592 89.3979 52.0053C89.3764 52.0176 89.3675 52.0356 89.371 52.0592C88.4826 50.4462 88.3299 48.7573 88.9128 46.9925C90.0355 44.5081 91.9669 43.3671 94.7072 43.5698C96.4035 43.8875 97.733 44.759 98.6958 46.184C98.4088 46.5057 98.1034 46.8021 97.7795 47.0734C97.5803 47.2318 97.3736 47.3846 97.1596 47.5315C95.8611 45.7995 94.2171 45.3773 92.2277 46.2648C90.9801 47.0622 90.4141 48.2032 90.5298 49.6875C90.862 51.1157 91.7333 52.0411 93.144 52.4634C94.4615 52.7902 95.5844 52.4758 96.5128 51.5202C96.6401 51.3375 96.7389 51.1399 96.8093 50.9273C95.8567 50.8867 94.9044 50.8508 93.9525 50.8195C93.9525 50.0828 93.9525 49.3462 93.9525 48.6095C95.8031 48.6095 97.6537 48.6095 99.5043 48.6095C99.6026 51.0485 98.5965 52.8542 96.4859 54.0265C95.2594 54.57 93.9838 54.7227 92.6589 54.4847Z" fill="#F4801D"/>
<path opacity="0.973" fill-rule="evenodd" clip-rule="evenodd" d="M89.3711 52.0592C89.3675 52.0356 89.3765 52.0176 89.398 52.0053C89.4519 52.0592 89.5058 52.1131 89.5597 52.167C90.3082 53.2651 91.3233 54.0017 92.6051 54.377C92.6481 54.4016 92.6661 54.4376 92.659 54.4848C90.8831 54.4145 89.4637 53.6778 88.4008 52.2748C88.3829 52.3197 88.3649 52.3647 88.3469 52.4096C88.4033 52.7595 88.4572 53.1099 88.5086 53.4607C88.5011 53.5431 88.4652 53.597 88.4008 53.6224C88.3649 53.6224 88.3469 53.6044 88.3469 53.5685C87.8986 52.6456 87.5842 51.6754 87.4037 50.6578C87.3055 49.7572 87.3953 48.8768 87.6732 48.0167C87.7221 47.9122 87.803 47.8583 87.9157 47.855C87.8468 49.2908 88.1792 50.6204 88.9129 51.8436C89.165 52.2033 89.4525 52.5267 89.7753 52.8138C89.6369 52.5733 89.5021 52.3218 89.3711 52.0592Z" fill="#F7AE1B"/>
<path opacity="0.99" fill-rule="evenodd" clip-rule="evenodd" d="M104.84 54.2152C104.84 54.2691 104.84 54.323 104.84 54.3769C104.51 54.4524 104.204 54.5871 103.924 54.7812C103.475 55.1944 103.026 55.6076 102.577 56.0209C102.127 56.273 101.642 56.4347 101.121 56.506C100.564 56.542 100.007 56.542 99.4503 56.506C99.0356 56.4336 98.6403 56.3078 98.2645 56.1287C98.9961 55.3749 99.8765 54.8717 100.906 54.6195C101.302 54.5295 101.698 54.4397 102.091 54.35C101.697 54.2471 101.302 54.2471 100.906 54.35C99.7285 54.5783 98.7582 55.1352 97.995 56.0209C97.9439 56.0469 97.89 56.0559 97.8333 56.0479C97.7072 54.5671 98.354 53.6239 99.7737 53.2181C101.58 52.9731 103.269 53.3055 104.84 54.2152Z" fill="#018F3B"/>
<path opacity="0.954" fill-rule="evenodd" clip-rule="evenodd" d="M90.2874 55.0775C90.5265 55.0619 90.7601 55.0889 90.9881 55.1584C91.3546 55.3518 91.3456 55.5226 90.9612 55.6705C90.5328 55.3262 90.2723 55.425 90.1796 55.9669C90.1747 56.2588 90.3184 56.4294 90.6108 56.479C90.9738 56.2903 90.9379 56.2184 90.503 56.2634C90.503 56.1196 90.503 55.9759 90.503 55.8322C91.4453 55.5959 91.6609 55.8744 91.1498 56.6676C90.6214 56.9669 90.1633 56.8861 89.7753 56.4251C89.6079 55.965 89.6888 55.5607 90.0179 55.2123C90.1252 55.1921 90.2151 55.1472 90.2874 55.0775Z" fill="#F38231"/>
<path opacity="0.988" fill-rule="evenodd" clip-rule="evenodd" d="M92.1199 55.0777C92.9243 55.0288 93.2747 55.4061 93.1709 56.2096C93.0178 56.6953 92.6854 56.9019 92.1738 56.8295C91.5916 56.5948 91.403 56.1726 91.6078 55.5628C91.7035 55.3142 91.8742 55.1525 92.1199 55.0777ZM92.3355 55.455C92.5717 55.5406 92.6795 55.7113 92.6589 55.9671C92.6637 56.378 92.493 56.4948 92.1468 56.3174C91.9705 55.98 92.0335 55.6926 92.3355 55.455Z" fill="#F38331"/>
<path opacity="0.978" fill-rule="evenodd" clip-rule="evenodd" d="M93.4675 55.1315C93.9033 55.1099 94.3345 55.1368 94.7611 55.2123C95.0264 55.465 95.0444 55.7345 94.815 56.0208C94.5467 56.1687 94.2593 56.2317 93.9526 56.2095C93.9526 56.4072 93.9526 56.6048 93.9526 56.8024C93.7909 56.8024 93.6292 56.8024 93.4675 56.8024C93.4675 56.2454 93.4675 55.6884 93.4675 55.1315ZM93.9526 55.4549C94.0797 55.4461 94.2054 55.455 94.3299 55.4818C94.4442 55.5639 94.4622 55.6627 94.3838 55.7783C94.2445 55.8311 94.1007 55.8491 93.9526 55.8322C93.9526 55.7064 93.9526 55.5806 93.9526 55.4549Z" fill="#F38432"/>
<path opacity="0.962" fill-rule="evenodd" clip-rule="evenodd" d="M95.5695 55.1316C95.7527 55.1143 95.9324 55.1323 96.1085 55.1855C96.328 55.7181 96.5256 56.2571 96.7014 56.8025C96.5388 56.8114 96.3771 56.8024 96.2163 56.7756C96.1796 56.5656 96.0538 56.4847 95.839 56.533C95.6447 56.515 95.5189 56.5958 95.4617 56.7756C95.3191 56.8023 95.1753 56.8113 95.0305 56.8025C95.0219 56.7109 95.0308 56.6211 95.0575 56.533C95.2453 56.0682 95.416 55.601 95.5695 55.1316ZM95.839 55.6167C95.8758 55.7776 95.9297 55.9393 96.0007 56.1018C95.8985 56.1539 95.7907 56.1718 95.6773 56.1557C95.7097 55.9688 95.7636 55.7891 95.839 55.6167Z" fill="#F38331"/>
<path opacity="0.992" fill-rule="evenodd" clip-rule="evenodd" d="M96.9709 55.1316C97.1326 55.1316 97.2944 55.1316 97.4561 55.1316C97.4561 55.5628 97.4561 55.994 97.4561 56.4252C97.7615 56.4252 98.0669 56.4252 98.3724 56.4252C98.3724 56.551 98.3724 56.6768 98.3724 56.8025C97.9052 56.8025 97.4381 56.8025 96.9709 56.8025C96.9709 56.2456 96.9709 55.6885 96.9709 55.1316Z" fill="#F48533"/>
<path opacity="0.678" fill-rule="evenodd" clip-rule="evenodd" d="M89.4249 58.3117C89.2632 58.3117 89.1015 58.3117 88.9398 58.3117C88.9398 58.2219 88.9398 58.1321 88.9398 58.0422C88.7961 58.0422 88.6523 58.0422 88.5086 58.0422C88.5086 58.1321 88.5086 58.2219 88.5086 58.3117C88.3649 58.3117 88.2211 58.3117 88.0774 58.3117C88.2251 57.9925 88.3868 57.678 88.5625 57.3684C88.5378 57.3461 88.5199 57.3192 88.5086 57.2876C88.6353 57.1944 88.7791 57.1584 88.9398 57.1798C88.9312 57.2714 88.9402 57.3612 88.9668 57.4493C89.1099 57.7443 89.2626 58.0317 89.4249 58.3117ZM88.6703 57.6649C88.769 57.6994 88.787 57.7533 88.7242 57.8266C88.6765 57.7821 88.6585 57.7282 88.6703 57.6649Z" fill="#263238"/>
<path opacity="0.664" fill-rule="evenodd" clip-rule="evenodd" d="M90.3412 58.3117C90.1435 58.3117 89.9459 58.3117 89.7482 58.3117C89.2293 57.9185 89.2473 57.5502 89.8021 57.2067C90.0733 57.1551 90.3248 57.2001 90.5568 57.3415C90.5164 57.4402 90.4625 57.5301 90.3951 57.611C90.0929 57.363 89.8773 57.4169 89.7482 57.7727C89.8197 58.0194 89.9814 58.1003 90.2334 58.0152C90.258 57.9929 90.276 57.966 90.2873 57.9344C90.1888 57.9117 90.081 57.9117 89.9638 57.9344C89.9638 57.8445 89.9638 57.7547 89.9638 57.6649C90.1794 57.6649 90.3951 57.6649 90.6107 57.6649C90.6107 57.8445 90.6107 58.0242 90.6107 58.2039C90.5 58.1986 90.4101 58.2345 90.3412 58.3117Z" fill="#263238"/>
<path opacity="0.707" fill-rule="evenodd" clip-rule="evenodd" d="M91.9043 58.3116C91.7426 58.3116 91.5809 58.3116 91.4192 58.3116C91.4146 58.2579 91.4326 58.213 91.4731 58.1769C91.3595 58.1087 91.3056 58.0099 91.3114 57.8804C91.2396 57.8804 91.1677 57.8804 91.0958 57.8804C91.0958 58.0242 91.0958 58.1679 91.0958 58.3116C90.9701 58.3116 90.8443 58.3116 90.7185 58.3116C90.7904 57.9343 90.7904 57.557 90.7185 57.1797C91.0469 57.1602 91.3703 57.1872 91.6887 57.2606C91.9138 57.4927 91.8958 57.7083 91.6348 57.9074C91.7652 58.0229 91.8551 58.1577 91.9043 58.3116ZM91.0958 57.4492C91.2565 57.4279 91.4003 57.4638 91.527 57.557C91.4003 57.6502 91.2565 57.6862 91.0958 57.6648C91.0958 57.593 91.0958 57.5211 91.0958 57.4492Z" fill="#263238"/>
<path opacity="0.622" fill-rule="evenodd" clip-rule="evenodd" d="M92.3895 58.3115C92.2457 58.3115 92.102 58.3115 91.9583 58.3115C92.0263 57.9791 92.0263 57.6467 91.9583 57.3144C91.9876 57.2094 92.0594 57.1645 92.1739 57.1796C92.2719 57.1711 92.3438 57.207 92.3895 57.2874C92.3223 57.628 92.3223 57.9694 92.3895 58.3115Z" fill="#263238"/>
<path opacity="0.708" fill-rule="evenodd" clip-rule="evenodd" d="M94.0065 58.3116C93.6471 58.3116 93.2878 58.3116 92.9285 58.3116C92.9982 57.935 92.9982 57.5577 92.9285 57.1797C93.2878 57.1797 93.6471 57.1797 94.0065 57.1797C94.0065 57.2875 94.0065 57.3953 94.0065 57.5031C93.7755 57.4602 93.5419 57.4423 93.3058 57.4492C93.2867 57.5643 93.3316 57.6361 93.4405 57.6648C93.5356 57.6392 93.6254 57.6032 93.71 57.557C93.7367 57.6633 93.7457 57.7711 93.737 57.8804C93.5932 57.8804 93.4495 57.8804 93.3058 57.8804C93.3058 57.9343 93.3058 57.9882 93.3058 58.0421C93.5252 58.0564 93.7408 58.0385 93.9526 57.9882C94.0046 58.0904 94.0226 58.1982 94.0065 58.3116Z" fill="#263238"/>
<path opacity="0.665" fill-rule="evenodd" clip-rule="evenodd" d="M95.6775 58.3117C95.5337 58.3117 95.39 58.3117 95.2463 58.3117C95.2283 58.2399 95.2103 58.2399 95.1924 58.3117C95.0486 58.3117 94.9049 58.3117 94.7612 58.3117C94.7466 58.0525 94.6568 58.0076 94.4917 58.177C94.5322 58.2131 94.5502 58.258 94.5456 58.3117C94.3839 58.3117 94.2222 58.3117 94.0605 58.3117C94.0524 58.255 94.0614 58.2011 94.0874 58.15C94.2243 58.0312 94.3411 57.8964 94.4378 57.7458C94.3206 57.5838 94.1948 57.4311 94.0605 57.2876C94.0717 57.256 94.0897 57.2291 94.1144 57.2067C94.257 57.18 94.4007 57.171 94.5456 57.1798C94.5249 57.2965 94.5608 57.3863 94.6534 57.4493C94.7073 57.4314 94.7432 57.3954 94.7612 57.3415C94.6997 57.2916 94.6997 57.2467 94.7612 57.2067C94.9038 57.18 95.0475 57.171 95.1924 57.1798C95.2065 57.2595 95.1886 57.3313 95.1385 57.3954C95.0163 57.4868 94.9265 57.6035 94.869 57.7458C94.9447 57.9384 95.0705 58.0912 95.2463 58.2039C95.2933 57.8653 95.3112 57.5328 95.3002 57.2067C95.5517 57.1708 95.8032 57.1708 96.0548 57.2067C96.3896 57.3176 96.4615 57.5243 96.2704 57.8266C96.0767 57.8765 95.8791 57.8945 95.6775 57.8805C95.6775 58.0243 95.6775 58.168 95.6775 58.3117ZM95.6775 57.4493C95.7867 57.4406 95.8945 57.4496 96.0009 57.4763C96.0255 57.4986 96.0435 57.5255 96.0548 57.5571C95.9465 57.6472 95.8207 57.6831 95.6775 57.6649C95.6775 57.5931 95.6775 57.5212 95.6775 57.4493Z" fill="#263238"/>
<path opacity="0.726" fill-rule="evenodd" clip-rule="evenodd" d="M97.3482 58.3115C97.1506 58.3115 96.953 58.3115 96.7553 58.3115C96.3939 58.0341 96.34 57.7017 96.5936 57.3144C96.9635 57.1057 97.2959 57.1506 97.5908 57.4491C97.7113 57.7935 97.6305 58.081 97.3482 58.3115ZM96.9709 57.4491C97.3548 57.5331 97.4267 57.7218 97.1865 58.0151C96.8721 58.06 96.7374 57.9252 96.7823 57.6108C96.844 57.5496 96.9069 57.4957 96.9709 57.4491Z" fill="#263238"/>
<path opacity="0.663" fill-rule="evenodd" clip-rule="evenodd" d="M99.666 58.3116C99.5223 58.3116 99.3786 58.3116 99.2348 58.3116C99.2802 58.0266 99.2982 57.7392 99.2887 57.4492C99.1508 57.4433 99.025 57.4792 98.9114 57.557C98.884 57.7037 98.8121 57.8205 98.6958 57.9073C98.7914 58.0336 98.8633 58.1684 98.9114 58.3116C98.7676 58.3116 98.6239 58.3116 98.4802 58.3116C98.4531 58.0758 98.3273 57.9321 98.1029 57.8804C98.1069 58.0263 98.1249 58.17 98.1568 58.3116C98.013 58.3116 97.8693 58.3116 97.7256 58.3116C97.7773 57.9383 97.7953 57.5699 97.7795 57.2066C98.1066 57.1633 98.43 57.1813 98.7497 57.2605C98.8144 57.3092 98.8594 57.3721 98.8845 57.4492C98.9111 57.3611 98.92 57.2713 98.9114 57.1797C99.2708 57.1797 99.6301 57.1797 99.9894 57.1797C99.9894 57.2875 99.9894 57.3953 99.9894 57.5031C99.8651 57.4765 99.7394 57.4586 99.6121 57.4492C99.5996 57.74 99.6175 58.0274 99.666 58.3116ZM98.1029 57.4492C98.2299 57.4404 98.3557 57.4494 98.4802 57.4761C98.5048 57.4985 98.5228 57.5254 98.5341 57.557C98.4074 57.6502 98.2636 57.6861 98.1029 57.6648C98.1029 57.5929 98.1029 57.521 98.1029 57.4492Z" fill="#263238"/>
</g>
</g>
<defs>
<clipPath id="clip0_6_805">
<rect width="318.906" height="301.83" fill="white"/>
</clipPath>
<clipPath id="clip1_6_805">
<rect width="20.105" height="20.5901" fill="white" transform="translate(84.7625 37.7485)"/>
</clipPath>
</defs>
</svg>
